<?xml version="1.0" encoding="UTF-8" standalone="no"?>
<!-- Created with Inkscape (http://www.inkscape.org/) -->

<svg
   xmlns:dc="http://purl.org/dc/elements/1.1/"
   xmlns:cc="http://creativecommons.org/ns#"
   xmlns:rdf="http://www.w3.org/1999/02/22-rdf-syntax-ns#"
   xmlns:svg="http://www.w3.org/2000/svg"
   xmlns="http://www.w3.org/2000/svg"
   xmlns:sodipodi="http://sodipodi.sourceforge.net/DTD/sodipodi-0.dtd"
   xmlns:inkscape="http://www.inkscape.org/namespaces/inkscape"
   width="210mm"
   height="297mm"
   id="svg3194"
   version="1.1"
   inkscape:version="0.47 r22583"
   sodipodi:docname="Nouveau document 10">
  <defs
     id="defs3196">
    <inkscape:perspective
       sodipodi:type="inkscape:persp3d"
       inkscape:vp_x="0 : 526.18109 : 1"
       inkscape:vp_y="0 : 1000 : 0"
       inkscape:vp_z="744.09448 : 526.18109 : 1"
       inkscape:persp3d-origin="372.04724 : 350.78739 : 1"
       id="perspective3202" />
    <inkscape:perspective
       id="perspective3186"
       inkscape:persp3d-origin="0.5 : 0.33333333 : 1"
       inkscape:vp_z="1 : 0.5 : 1"
       inkscape:vp_y="0 : 1000 : 0"
       inkscape:vp_x="0 : 0.5 : 1"
       sodipodi:type="inkscape:persp3d" />
  </defs>
  <sodipodi:namedview
     id="base"
     pagecolor="#ffffff"
     bordercolor="#666666"
     borderopacity="1.0"
     inkscape:pageopacity="0.0"
     inkscape:pageshadow="2"
     inkscape:zoom="0.175"
     inkscape:cx="774.45619"
     inkscape:cy="539.73077"
     inkscape:document-units="px"
     inkscape:current-layer="layer1"
     showgrid="false"
     inkscape:window-width="654"
     inkscape:window-height="500"
     inkscape:window-x="0"
     inkscape:window-y="49"
     inkscape:window-maximized="0" />
  <metadata
     id="metadata3199">
    <rdf:RDF>
      <cc:Work
         rdf:about="">
        <dc:format>image/svg+xml</dc:format>
        <dc:type
           rdf:resource="http://purl.org/dc/dcmitype/StillImage" />
        <dc:title></dc:title>
      </cc:Work>
    </rdf:RDF>
  </metadata>
  <g
     inkscape:label="Calque 1"
     inkscape:groupmode="layer"
     id="layer1">
    <g
       style="display:inline"
       id="g3195"
       transform="matrix(11.229386,0,0,11.229386,12.706878,166.84075)">
      <path
         id="path3197"
         style="fill:#dddddd;fill-opacity:1;stroke:#bbbbbb;stroke-width:2;stroke-linecap:round;stroke-linejoin:round;stroke-miterlimit:4;stroke-opacity:1;stroke-dashoffset:0"
         d="m 34.90418,23.96875 c 0.3125,3.96875 -2.15625,8.71875 -10.75,11.375 -6.46875,3.03125 -8.28125,11.375 -11.625,11.75 -0.44869,-0.633441 -3.75742,-0.296769 0.15008,-5.039553 -3.8586,4.685916 -9.13798,0.545761 -8.15008,-3.585447 0.5,-5.5 6.875,-10.40625 7.375,-14.5 -2,-5.34375 4.5,-9.875 4.5,-9.875 l 0.125,-8.75 8,4.5 4.25,-5 3.25,6.875 c 25,-4.75 26.46875,35.6875 27.5625,47.375 l -39.6875,0.0625 c -2.1875,-9.0625 13.1875,-14.3125 11.75,-27.5625 m -7.125,-21.75 -7.625,4" />
      <path
         id="path3199"
         style="fill:#ffffff;fill-opacity:1;stroke:none"
         transform="matrix(0.5197388,0.2157579,-0.3834038,0.9235808,-15.89728,-8.613086)"
         d="m 72.090028,13.333774 c 0.772776,-0.93619 2.018247,-0.946205 2.801093,-0.02252 0.782845,0.92368 0.814965,2.441126 0.07224,3.41277 -0.742727,0.971645 -1.986966,1.039907 -2.79832,0.153523 -0.811355,-0.886384 -0.891234,-2.40121 -0.17965,-3.406878" />
      <path
         id="path3201"
         style="fill:#ffffff;fill-opacity:1;stroke:none"
         transform="matrix(0.5197388,0.2157579,-0.3834038,0.9235808,-23.897283,10.136914)"
         d="m 72.090028,13.333774 c 0.772776,-0.93619 2.018247,-0.946205 2.801093,-0.02252 0.782845,0.92368 0.814965,2.441126 0.07224,3.41277 -0.742727,0.971645 -1.986966,1.039907 -2.79832,0.153523 -0.811355,-0.886384 -0.891234,-2.40121 -0.17965,-3.406878" />
    </g>
  </g>
</svg>
